<?xml version="1.0" encoding="UTF-8"?>
<svg id="Layer_1" xmlns="http://www.w3.org/2000/svg" version="1.1" viewBox="0 0 1920 1080">
  <!-- Generator: Adobe Illustrator 30.4.0, SVG Export Plug-In . SVG Version: 2.1.4 Build 226)  -->
  <defs>
    <style>
      .st0 {
        fill: #fff;
      }
    </style>
  </defs>
  <path d="M663.32,375c-60.23,0-67.91-12.13-67.91-24.66,0-14.55,9.3-23.44,67.91-23.44s67.1,8.89,67.1,23.44c0,12.53-7.68,24.66-67.1,24.66ZM602.68,647.84c1.62-38.4,1.21-85.69,1.21-134.6,0-46.08-.4-86.1-1.21-124.9h120.45c-1.21,39.61-1.21,78.42-1.21,133.79s0,88.92,1.21,125.71h-120.45Z"/>
  <path d="M1035.18,334.98c-.81,43.65-.81,87.31-.81,156.43s-.4,111.16.81,156.43h-120.45c0-8.49.4-16.98.4-25.87,0-6.06,0-12.13.4-18.19l-2.42-.4c-9.3,25.06-29.51,48.1-78.01,48.1-58.21,0-88.52-34.36-88.52-133.79s39.61-132.98,92.16-132.98c33.55,0,60.23,10.51,75.59,37.19l1.21-.4c-.81-13.74-.81-25.06-.81-41.23,0-16.98,0-31.12-.4-45.27h120.86ZM916.75,464.33c-6.47-2.02-13.74-3.23-22.23-3.23-20.61,0-30.32,10.91-30.32,54.16,0,39.21,9.3,50.93,25.06,50.93s27.49-12.13,27.49-42.85v-59.01Z"/>
  <path d="M1213.43,487.77c0-17.38-6.06-25.06-22.64-25.06s-26.68,8.08-23.85,32.74c-10.91-1.21-28.29-1.21-45.67-1.21-21.42,0-42.85.4-54.97,1.62-2.42-80.44,32.34-112.37,130.56-112.37,91.35,0,129.34,30.31,129.34,94.58,0,37.99-.81,62.65-.81,95.8,0,27.49,1.62,62.65,5.66,73.97h-91.75c-20.61,0-24.25-1.62-24.25-25.06,0-4.85.4-11.32.81-17.79h-2.02c-9.7,31.53-37.19,46.08-78.42,46.08-50.12,0-76.39-16.17-76.39-69.52s34.76-75.18,115.2-75.18c15.36,0,28.29.4,39.21,2.02v-20.61ZM1213.03,540.72c-6.47-.4-12.93-.81-19.4-.81-20.61,0-28.7,5.26-28.7,20.61,0,17.38,6.06,23.04,22.23,23.04,16.98,0,25.87-11.72,25.87-42.85Z"/>
  <path d="M1482.23,425.93c14.96-25.06,40.02-41.63,76.39-41.63,58.2,0,87.71,38.8,87.71,133.79s-31.93,133.79-88.92,133.79c-46.08,0-67.1-17.79-77.61-42.04l-2.42.4c.4,10.51.4,21.02.4,32.74,0,20.21.4,37.99.81,57.4h-121.26c1.21-50.53,1.21-111.16,1.21-176.23,0-58.61,0-97.82-.81-135.81h120.86c0,7.68-.4,14.55-.4,22.64,0,4.85,0,9.7-.4,14.15l4.45.81ZM1475.76,562.95c6.47,2.43,14.15,3.64,23.04,3.64,21.02,0,29.91-13.74,29.91-54.16,0-37.19-8.49-47.29-24.25-47.29-16.98,0-28.7,12.13-28.7,42.85v54.97Z"/>
  <path d="M450.89,344.94c6.3-5.44,23.5-20.06,29.23-22.16.92-1.22-5.77-2.8-6.36-2.94-13.21-3.07-27.57-1.02-40.17,3.57-1.76.64-3.52,1.39-5.2,2.21-.21-.22,1.53-2.65,1.82-3.07,3.63-5.27,8.25-8.94,11.9-13.65.24-.31.61-.4.47-.95-.42-.59-6.47.23-7.63.4-14.87,2.16-32.81,9.2-45.88,16.57-9.46,5.33-17.99,12-25.29,19.75h-90.12c.81,41.23,1.21,87.71,1.21,151.98s-.4,108.33-1.21,151.17h158.85c107.52,0,146.32-30.72,146.32-163.7,0-108.92-39.84-136.38-127.94-139.19Z"/>
  <path class="st0" d="M519.2,494.73c8.34-20.65,9.6-44.66,3.62-66.14-4.52-16.26-16.08-36.42-36.08-32.08-14.92,3.24-22.5,19.47-26.42,32.66-.25.84-.93,5.25-1.62,5.25-13.19-15.69-31.93-25.71-52.97-23.01-40.23,5.16-54.13,49.86-37.96,83.59,6.71,14,18.35,25.1,32.44,31.5l-5.54,2.55c-29.7,19.74-16.85,53.85,10.12,68.95,46.57,26.06,120.08,6.56,138.58-46.11,8.13-23.15,1.47-50.23-24.18-57.17ZM480.05,444.91c.13-.76.27-1.51.45-2.26s.36-1.49.59-2.23c.97-3.23,2.34-5.93,4.01-7.67.45-.47.93-.88,1.42-1.2.33-.22.67-.4,1.01-.54.35-.14.7-.25,1.06-.31.36-.07.73-.09,1.1-.07,2.24.11,4.71,1.75,7.23,5.46.68,1,1.32,2.1,1.9,3.27.39.78.76,1.59,1.11,2.44s.67,1.72.98,2.61c.15.45.3.9.44,1.36,3.4,11.03,3.75,25.21,1.27,34.4-1.18,4.36-2.83,7.32-4.71,8.95-1.32,1.14-2.75,1.63-4.23,1.49-.42-.04-.84-.13-1.27-.27-.21-.07-.42-.16-.64-.25-2.55-1.16-5.09-4.14-7.24-8.83-.21-.46-.49-1.13-.8-1.89-.54-1.34-1.16-2.99-1.61-4.41-.26-.81-.45-1.54-.55-2.09-.02-.14-.04-.26-.05-.38-.05-.57-.15-.85.43-1.22l13.17-10.11-7.89-1.22-7.89-1.22c-.01-.76-.03-1.53-.03-2.3-.03-3.84.1-7.72.73-11.51ZM505.4,510.77c.02,2.99-1.88,8.49-5.46,8.63-7.79.32-10.2-18.63-2.69-19.73,5.2-.76,8.12,7.02,8.15,11.09ZM474.26,507.47c.65-.68,1.82-1.52,2.74-1.71,9.22-1.88,15.56,15.6,7.4,19.13-8.18,3.53-16.6-10.62-10.14-17.42ZM404.71,453.47c.38-.99.77-1.91,1.19-2.76,7.41,4.55,18.14,9.57,26.19,6.87,5.27,12.25,6.51,29.16,1.85,40.91-5.6,14.13-16.73,11.83-23.99.54-1.06-1.65-5.35-9.45-4.45-10.97l18.13-12.02-21.47-2.86c-.21-6.69.16-13.4,2.55-19.7ZM509.22,543.16c-2.22,9.32-13.26,45.6-50.69,47.25-18.99.84-30.31-9.7-37.03-21.72,5.76,5.47,12.35,10.12,19.51,13.09,8.68,3.6,19.27,4.83,28.1,1.07,4.12-1.75,3.03-2.68,1.45-6.52-4.17-10.14-15.54-16.74-26.4-14.1-.5.46-.15.47,0,.84.79,2.08,2.27,4.08,2.88,6.36.1.38.59,1.56-.11,1.57-6.24-10.85-18.82-18.14-31.26-16.07-3.25-10.36-3.82-18.96-3.82-18.96-2.73.23-4.1,5.94-7.04,4.2-1.39-.83-.61-3.8-.18-5.05,2.16-6.28,10.52-10.67,16.87-8.8.46.14,1.55.49,1.83.8.32.35.43.86.5,1.32-.16,2.02-5.58,2.6-6.86,4.04,2.83,4.35,7.59,7.98,12.02,10.64,21.05,12.65,49.85,12.3,71.51,1.24,2.62-1.34,8.82-6.18,10.67-6.73.56-.17,1.15-.12,1.72-.1.81.79-1.6,3.56-3.65,5.62Z"/>
</svg>