<?xml version="1.0" encoding="UTF-8"?>
<svg id="Layer_1" data-name="Layer 1" xmlns="http://www.w3.org/2000/svg" viewBox="0 0 1920 1080">
  <defs>
    <style>
      .cls-1 {
        fill: #fff;
      }
    </style>
  </defs>
  <path d="M1024.8,190.63c16.56-14.3,61.81-52.74,76.85-58.27,2.41-3.21-15.16-7.36-16.73-7.72-34.75-8.06-72.5-2.68-105.62,9.38-4.63,1.69-9.25,3.64-13.66,5.82-.56-.58,4.03-6.97,4.78-8.06,9.54-13.85,21.7-23.52,31.29-35.89.64-.83,1.6-1.06,1.23-2.49-1.11-1.55-17.02.62-20.08,1.06-39.12,5.69-86.29,24.2-120.65,43.58-24.87,14.03-47.3,31.57-66.49,51.92h-236.99c2.12,108.42,3.19,230.66,3.19,399.66s-1.06,284.87-3.19,397.54h417.73c282.74,0,384.78-80.78,384.78-430.49,0-286.42-104.76-358.64-336.46-366.04Z"/>
  <path class="cls-1" d="M1204.42,584.54c21.93-54.31,25.24-117.43,9.52-173.93-11.9-42.76-42.3-95.78-94.87-84.36-39.23,8.52-59.17,51.19-69.49,85.9-.66,2.21-2.46,13.81-4.26,13.81-34.69-41.25-83.97-67.61-139.29-60.51-105.8,13.57-142.36,131.13-99.83,219.83,17.65,36.81,48.25,66,85.32,82.84l-14.56,6.71c-78.11,51.9-44.31,141.61,26.62,181.31,122.45,68.53,315.79,17.25,364.42-121.25,21.38-60.88,3.86-132.09-63.59-150.34ZM1101.48,453.52c.33-1.99.72-3.97,1.17-5.94s.96-3.92,1.54-5.86c2.54-8.5,6.16-15.59,10.54-20.16,1.19-1.25,2.44-2.31,3.75-3.16.87-.57,1.76-1.04,2.66-1.42.91-.38,1.84-.65,2.79-.83.95-.17,1.91-.24,2.9-.19,5.89.28,12.37,4.6,19.02,14.36,1.8,2.64,3.46,5.52,5,8.6,1.03,2.05,2,4.19,2.91,6.41s1.77,4.51,2.57,6.87c.4,1.18.79,2.37,1.16,3.58,8.95,29.01,9.86,66.29,3.33,90.46-3.1,11.46-7.43,19.25-12.39,23.54-3.47,3-7.24,4.29-11.11,3.92-1.1-.11-2.22-.35-3.33-.72-.56-.19-1.12-.41-1.67-.66-6.7-3.05-13.4-10.89-19.03-23.22-.55-1.21-1.3-2.96-2.11-4.98-1.42-3.53-3.05-7.87-4.23-11.59-.67-2.13-1.19-4.05-1.44-5.49-.06-.36-.11-.69-.13-.99-.13-1.5-.39-2.23,1.14-3.21l34.63-26.59-20.75-3.2-20.75-3.2c-.04-2.01-.07-4.02-.08-6.04-.07-10.1.25-20.3,1.92-30.26ZM1168.13,626.71c.04,7.87-4.93,22.32-14.35,22.7-20.49.83-26.83-48.99-7.07-51.88,13.67-2,21.36,18.47,21.42,29.18ZM1086.25,618.03c1.71-1.8,4.79-4,7.21-4.5,24.23-4.94,40.93,41.03,19.45,50.3-21.5,9.28-43.64-27.92-26.65-45.81ZM903.34,476.03c.99-2.61,2.04-5.02,3.14-7.25,19.5,11.97,47.69,25.16,68.87,18.06,13.86,32.22,17.12,76.67,4.87,107.58-14.72,37.17-43.99,31.1-63.1,1.41-2.8-4.35-14.07-24.86-11.71-28.86l47.68-31.6-56.47-7.53c-.54-17.6.42-35.24,6.7-51.81ZM1178.17,711.88c-5.85,24.51-34.88,119.91-133.31,124.24-49.93,2.2-79.7-25.51-97.38-57.11,15.16,14.39,32.48,26.62,51.31,34.42,22.84,9.46,50.68,12.71,73.9,2.82,10.83-4.61,7.97-7.05,3.81-17.15-10.97-26.66-40.85-44.01-69.41-37.08-1.32,1.22-.38,1.24-.01,2.22,2.08,5.48,5.97,10.73,7.57,16.72.27,1.01,1.56,4.11-.28,4.14-16.42-28.54-49.5-47.7-82.22-42.27-8.55-27.25-10.04-49.85-10.04-49.85-7.19.6-10.78,15.61-18.5,11.04-3.66-2.17-1.61-10-.49-13.28,5.67-16.52,27.66-28.07,44.36-23.13,1.22.36,4.07,1.3,4.8,2.09.84.91,1.14,2.27,1.31,3.48-.42,5.32-14.68,6.84-18.04,10.63,7.45,11.45,19.95,20.97,31.6,27.98,55.36,33.27,131.1,32.35,188.04,3.27,6.89-3.52,23.18-16.25,28.06-17.7,1.48-.44,3.02-.31,4.52-.26,2.12,2.09-4.22,9.36-9.61,14.78Z"/>
</svg>