<?xml version="1.0" encoding="UTF-8"?>
<svg id="Layer_1" xmlns="http://www.w3.org/2000/svg" version="1.1" viewBox="0 0 1920 1080">
  <!-- Generator: Adobe Illustrator 30.4.0, SVG Export Plug-In . SVG Version: 2.1.4 Build 226)  -->
  <defs>
    <style>
      .st0 {
        fill: #fbf4e2;
      }

      .st1 {
        fill: #141414;
      }

      .st2 {
        fill: #c8412c;
      }

      .st3 {
        font-family: MyriadPro-Regular, 'Myriad Pro';
        font-size: 23px;
      }

      .st4 {
        fill: #e2a52b;
      }

      .st5 {
        fill: #2e5d4a;
      }
    </style>
  </defs>
  <text class="st3" transform="translate(164.01 738.68)"><tspan x="0" y="0">HEX #161412</tspan><tspan x="0" y="27.6">CMYK 70 65 65 80</tspan><tspan x="0" y="55.2">Primary text / outlines</tspan></text>
  <text class="st3" transform="translate(532.22 738.68)"><tspan x="0" y="0">HEX #C8412C</tspan><tspan x="0" y="27.6">CMYK 14 84 86 4</tspan><tspan x="0" y="55.2">Accent · alerts · highlights</tspan></text>
  <text class="st3" transform="translate(881.01 738.68)"><tspan x="0" y="0">HEX #FBF4E2</tspan><tspan x="0" y="27.6">CMYK 2 4 14 0</tspan><tspan x="0" y="55.2">Off-white surface</tspan></text>
  <g>
    <path class="st1" d="M336.38,523.1c6.68-2.88,1.49-17.18-6.05-15.65-.75.15-1.71.84-2.24,1.4-5.28,5.56,1.6,17.13,8.29,14.25Z"/>
    <path class="st1" d="M338.7,469.97l6.45,1-10.77,8.27c-.48.3-.4.53-.35,1,0,.09.02.2.04.31.08.45.24,1.05.45,1.71.37,1.16.87,2.51,1.31,3.6.25.63.48,1.17.66,1.55,1.75,3.84,3.84,6.27,5.92,7.22.17.08.35.15.52.21.35.12.69.19,1.04.22,1.2.11,2.38-.29,3.46-1.22,1.54-1.33,2.89-3.76,3.85-7.32,2.03-7.52,1.75-19.11-1.04-28.13-.12-.38-.24-.75-.36-1.11-.25-.73-.52-1.45-.8-2.14-.28-.69-.59-1.36-.9-1.99-.48-.96-1-1.85-1.56-2.67-2.07-3.04-4.08-4.38-5.92-4.47-.31-.01-.61,0-.9.06-.29.05-.58.14-.87.26s-.56.27-.83.44c-.4.27-.79.59-1.16.98-1.36,1.42-2.49,3.63-3.28,6.27-.18.6-.34,1.21-.48,1.82-.14.61-.26,1.23-.36,1.85-.52,3.1-.62,6.27-.6,9.41,0,.63.01,1.25.03,1.88l6.45,1Z"/>
    <path class="st1" d="M271.84,492.97c-.73,1.24,2.77,7.62,3.64,8.98,5.94,9.24,15.05,11.12,19.63-.44,3.81-9.62,2.79-23.44-1.52-33.46-6.59,2.21-15.36-1.9-21.42-5.62-.34.69-.67,1.44-.98,2.25-1.95,5.16-2.25,10.64-2.08,16.11l17.56,2.34-14.83,9.83Z"/>
    <path class="st1" d="M346.89,502.48c-6.14.9-4.17,16.39,2.2,16.14,2.93-.12,4.48-4.61,4.46-7.06-.02-3.33-2.41-9.7-6.66-9.07Z"/>
    <path class="st1" d="M358.26,533.52c-1.52.45-6.58,4.41-8.73,5.51-17.71,9.04-41.27,9.33-58.49-1.02-3.63-2.18-7.51-5.14-9.83-8.7,1.05-1.18,5.48-1.65,5.61-3.31-.05-.38-.14-.8-.41-1.08-.23-.25-1.11-.54-1.49-.65-5.2-1.54-12.03,2.05-13.8,7.19-.35,1.02-.99,3.46.15,4.13,2.4,1.42,3.52-3.25,5.75-3.43,0,0,.46,7.03,3.12,15.5,10.18-1.69,20.47,4.27,25.57,13.15.57,0,.17-.97.09-1.29-.5-1.86-1.71-3.49-2.36-5.2-.12-.3-.41-.31,0-.69,8.88-2.15,18.18,3.24,21.59,11.53,1.29,3.14,2.18,3.9-1.18,5.34-7.22,3.07-15.88,2.06-22.99-.88-5.86-2.43-11.24-6.23-15.96-10.71,5.5,9.83,14.76,18.45,30.29,17.76,30.62-1.35,39.65-31.02,41.46-38.64,1.68-1.69,3.65-3.95,2.99-4.6-.47-.02-.95-.06-1.41.08Z"/>
    <path class="st1" d="M308.97,375.91c5.15-4.45,19.22-16.4,23.9-18.13.75-1-4.72-2.29-5.2-2.4-10.81-2.51-22.55-.84-32.85,2.92-1.44.52-2.88,1.13-4.25,1.81-.17-.18,1.25-2.17,1.49-2.51,2.97-4.31,6.75-7.31,9.73-11.16.2-.26.5-.33.38-.77-.34-.48-5.29.19-6.24.33-12.17,1.77-26.84,7.53-37.53,13.55-7.74,4.36-14.71,9.82-20.68,16.15h-73.71c.66,33.72.99,71.74.99,124.31s-.33,88.6-.99,123.65h129.93c87.94,0,119.68-25.13,119.68-133.9,0-89.09-32.58-111.55-104.65-113.85ZM384.62,545.19c-15.13,43.08-75.26,59.03-113.35,37.71-22.06-12.35-32.57-40.25-8.28-56.39l4.53-2.09c-11.53-5.24-21.05-14.32-26.54-25.77-13.23-27.59-1.86-64.15,31.05-68.37,17.21-2.21,32.54,5.99,43.32,18.82.56,0,1.12-3.61,1.33-4.3,3.21-10.79,9.41-24.07,21.61-26.72,16.35-3.55,25.81,12.94,29.51,26.24,4.89,17.57,3.86,37.21-2.96,54.1,20.98,5.68,26.43,27.83,19.78,46.76Z"/>
  </g>
  <g>
    <path class="st2" d="M640.04,492.97c-.73,1.24,2.77,7.62,3.64,8.98,5.94,9.24,15.05,11.12,19.63-.44,3.81-9.62,2.79-23.44-1.52-33.46-6.59,2.21-15.36-1.9-21.42-5.62-.34.69-.67,1.44-.98,2.26-1.95,5.16-2.25,10.64-2.09,16.11l17.56,2.34-14.83,9.83Z"/>
    <path class="st2" d="M715.09,502.48c-6.14.9-4.17,16.39,2.2,16.14,2.93-.12,4.48-4.61,4.46-7.06-.02-3.33-2.41-9.7-6.66-9.07Z"/>
    <path class="st2" d="M706.91,469.97l6.45,1-10.77,8.27c-.47.3-.4.53-.35,1,0,.09.02.2.04.31.08.45.24,1.05.45,1.71.37,1.16.87,2.51,1.31,3.61.25.63.48,1.17.66,1.55,1.75,3.84,3.84,6.27,5.92,7.22.17.08.35.15.52.21.35.12.69.19,1.04.22,1.2.11,2.38-.29,3.46-1.22,1.54-1.33,2.89-3.76,3.85-7.32,2.03-7.52,1.75-19.11-1.04-28.14-.12-.38-.24-.75-.36-1.11-.25-.73-.52-1.45-.8-2.14s-.59-1.36-.9-1.99c-.48-.96-1-1.85-1.56-2.67-2.07-3.04-4.08-4.38-5.92-4.47-.31-.01-.61,0-.9.06-.29.05-.58.14-.87.26-.28.12-.56.27-.83.44-.4.27-.79.6-1.17.98-1.36,1.42-2.49,3.63-3.28,6.27-.18.6-.34,1.21-.48,1.82-.14.61-.26,1.23-.36,1.85-.52,3.1-.62,6.27-.6,9.41,0,.63.01,1.25.03,1.88l6.45,1Z"/>
    <path class="st2" d="M704.58,523.1c6.68-2.88,1.49-17.18-6.05-15.65-.75.15-1.71.84-2.24,1.4-5.28,5.56,1.6,17.13,8.29,14.25Z"/>
    <path class="st2" d="M677.17,375.91c5.15-4.45,19.22-16.4,23.9-18.13.75-1-4.72-2.29-5.2-2.4-10.81-2.51-22.55-.84-32.85,2.92-1.44.52-2.88,1.13-4.25,1.81-.17-.18,1.25-2.17,1.49-2.51,2.97-4.31,6.75-7.31,9.73-11.16.2-.26.5-.33.38-.77-.34-.48-5.29.19-6.24.33-12.17,1.77-26.84,7.53-37.53,13.55-7.74,4.36-14.71,9.82-20.68,16.15h-73.71c.66,33.72.99,71.74.99,124.31s-.33,88.6-.99,123.65h129.93c87.94,0,119.68-25.13,119.68-133.9,0-89.09-32.58-111.55-104.65-113.85ZM752.82,545.19c-15.13,43.08-75.26,59.03-113.35,37.71-22.06-12.35-32.57-40.25-8.28-56.39l4.53-2.09c-11.53-5.24-21.05-14.32-26.54-25.77-13.23-27.59-1.86-64.15,31.05-68.37,17.21-2.21,32.53,5.99,43.32,18.82.56,0,1.12-3.61,1.33-4.3,3.21-10.79,9.41-24.07,21.61-26.72,16.35-3.55,25.81,12.94,29.51,26.24,4.89,17.57,3.86,37.21-2.96,54.1,20.98,5.68,26.43,27.83,19.78,46.76Z"/>
    <path class="st2" d="M726.46,533.52c-1.52.45-6.58,4.41-8.73,5.51-17.71,9.05-41.27,9.33-58.49-1.02-3.63-2.18-7.51-5.14-9.83-8.7,1.05-1.18,5.48-1.65,5.61-3.31-.05-.38-.14-.8-.41-1.08-.23-.25-1.11-.54-1.49-.65-5.2-1.54-12.03,2.06-13.8,7.19-.35,1.02-.99,3.46.15,4.13,2.4,1.42,3.52-3.25,5.76-3.43,0,0,.46,7.03,3.12,15.5,10.18-1.69,20.47,4.27,25.57,13.15.57,0,.17-.97.09-1.29-.5-1.86-1.71-3.49-2.36-5.2-.12-.3-.41-.31,0-.69,8.88-2.15,18.18,3.24,21.59,11.53,1.29,3.14,2.18,3.9-1.18,5.34-7.22,3.07-15.88,2.07-22.98-.88-5.86-2.43-11.24-6.23-15.96-10.71,5.5,9.83,14.76,18.45,30.29,17.76,30.62-1.35,39.65-31.02,41.46-38.64,1.68-1.69,3.65-3.95,2.99-4.6-.47-.02-.95-.06-1.41.08Z"/>
  </g>
  <g>
    <path class="st0" d="M1063.89,502.48c-6.14.9-4.17,16.39,2.2,16.14,2.93-.12,4.48-4.61,4.46-7.06-.02-3.33-2.41-9.7-6.66-9.07Z"/>
    <path class="st0" d="M1053.37,523.1c6.68-2.88,1.49-17.18-6.05-15.65-.75.15-1.71.84-2.24,1.4-5.28,5.56,1.6,17.13,8.29,14.25Z"/>
    <path class="st0" d="M1055.7,469.97l6.45,1-10.77,8.27c-.48.3-.4.53-.35,1,0,.09.02.2.04.31.08.45.24,1.05.45,1.71.37,1.16.87,2.51,1.31,3.61.25.63.48,1.17.66,1.55,1.75,3.84,3.84,6.27,5.92,7.22.17.08.35.15.52.21.35.12.69.19,1.04.22,1.2.11,2.38-.29,3.46-1.22,1.54-1.33,2.89-3.76,3.85-7.32,2.03-7.52,1.75-19.11-1.04-28.14-.12-.38-.24-.75-.36-1.11-.25-.73-.52-1.45-.8-2.14-.28-.69-.59-1.36-.9-1.99-.48-.96-1-1.85-1.56-2.67-2.07-3.04-4.08-4.38-5.92-4.47-.31-.01-.61,0-.9.06-.29.05-.58.14-.87.26s-.56.27-.83.44c-.4.27-.79.6-1.16.98-1.36,1.42-2.49,3.63-3.28,6.27-.18.6-.34,1.21-.48,1.82s-.26,1.23-.36,1.85c-.52,3.1-.62,6.27-.6,9.41,0,.63.01,1.25.03,1.88l6.45,1Z"/>
    <path class="st0" d="M1025.97,375.91c5.15-4.45,19.22-16.4,23.9-18.13.75-1-4.72-2.29-5.2-2.4-10.81-2.51-22.55-.84-32.85,2.92-1.44.52-2.88,1.13-4.25,1.81-.17-.18,1.25-2.17,1.49-2.51,2.97-4.31,6.75-7.31,9.73-11.16.2-.26.5-.33.38-.77-.34-.48-5.29.19-6.24.33-12.17,1.77-26.84,7.53-37.53,13.55-7.74,4.36-14.71,9.82-20.68,16.15h-73.71c.66,33.72.99,71.74.99,124.31s-.33,88.6-.99,123.65h129.93c87.94,0,119.68-25.13,119.68-133.9,0-89.09-32.58-111.55-104.65-113.85ZM1101.62,545.19c-15.13,43.08-75.26,59.03-113.35,37.71-22.06-12.35-32.57-40.25-8.28-56.39l4.53-2.09c-11.53-5.24-21.05-14.32-26.54-25.77-13.23-27.59-1.86-64.15,31.05-68.37,17.21-2.21,32.53,5.99,43.32,18.82.56,0,1.12-3.61,1.33-4.3,3.21-10.79,9.41-24.07,21.61-26.72,16.35-3.55,25.81,12.94,29.51,26.24,4.89,17.57,3.86,37.21-2.96,54.1,20.98,5.68,26.43,27.83,19.78,46.76Z"/>
    <path class="st0" d="M988.84,492.97c-.73,1.24,2.77,7.62,3.64,8.98,5.94,9.24,15.05,11.12,19.63-.44,3.81-9.62,2.79-23.44-1.52-33.46-6.59,2.21-15.36-1.9-21.42-5.62-.34.69-.67,1.44-.98,2.26-1.95,5.16-2.25,10.64-2.08,16.11l17.56,2.34-14.83,9.83Z"/>
    <path class="st0" d="M1075.25,533.52c-1.52.45-6.58,4.41-8.73,5.51-17.71,9.05-41.27,9.33-58.49-1.02-3.63-2.18-7.51-5.14-9.83-8.7,1.05-1.18,5.48-1.65,5.61-3.31-.05-.38-.14-.8-.41-1.08-.23-.25-1.11-.54-1.49-.65-5.2-1.54-12.03,2.06-13.8,7.19-.35,1.02-.99,3.46.15,4.13,2.4,1.42,3.52-3.25,5.75-3.43,0,0,.46,7.03,3.12,15.5,10.18-1.69,20.47,4.27,25.57,13.15.57,0,.17-.97.09-1.29-.5-1.86-1.71-3.49-2.35-5.2-.12-.3-.41-.31,0-.69,8.88-2.15,18.18,3.24,21.59,11.53,1.29,3.14,2.18,3.9-1.18,5.34-7.22,3.07-15.88,2.07-22.99-.88-5.86-2.43-11.24-6.23-15.96-10.71,5.5,9.83,14.76,18.45,30.29,17.76,30.62-1.35,39.65-31.02,41.46-38.64,1.68-1.69,3.65-3.95,2.99-4.6-.47-.02-.95-.06-1.41.08Z"/>
  </g>
  <text class="st3" transform="translate(1214.198 738.6821)"><tspan x="0" y="0">HEX #2E5D4A</tspan><tspan x="0" y="27.6">CMYK 78 36 70 28</tspan><tspan x="0" y="55.2">Secondary · trust</tspan></text>
  <text class="st3" transform="translate(1582.3999 738.6821)"><tspan x="0" y="0">HEX #E2A52B</tspan><tspan x="0" y="27.6">CMYK 8 36 92 0</tspan><tspan x="0" y="55.2">Banana · CTAs · joy</tspan></text>
  <g>
    <path class="st5" d="M1322.03,492.97c-.73,1.24,2.77,7.62,3.64,8.98,5.94,9.24,15.05,11.12,19.63-.44,3.81-9.62,2.79-23.44-1.52-33.46-6.59,2.21-15.36-1.9-21.42-5.62-.34.69-.67,1.44-.98,2.26-1.95,5.16-2.25,10.64-2.09,16.11l17.56,2.34-14.83,9.83Z"/>
    <path class="st5" d="M1397.08,502.48c-6.14.9-4.17,16.39,2.2,16.14,2.93-.12,4.48-4.61,4.46-7.06-.02-3.33-2.41-9.7-6.66-9.07Z"/>
    <path class="st5" d="M1388.89,469.97l6.45,1-10.77,8.27c-.48.3-.4.53-.35,1,0,.09.02.2.04.31.08.45.24,1.05.45,1.71.37,1.16.87,2.51,1.31,3.61.25.63.48,1.17.66,1.55,1.75,3.84,3.84,6.27,5.92,7.22.17.08.35.15.52.21.35.12.69.19,1.04.22,1.2.11,2.38-.29,3.46-1.22,1.54-1.33,2.89-3.76,3.85-7.32,2.03-7.52,1.75-19.11-1.04-28.14-.12-.38-.24-.75-.36-1.11-.25-.73-.52-1.45-.8-2.14s-.59-1.36-.9-1.99c-.48-.96-1-1.85-1.56-2.67-2.07-3.04-4.08-4.38-5.92-4.47-.31-.01-.61,0-.9.06-.29.05-.58.14-.87.26-.28.12-.56.27-.83.44-.4.27-.79.6-1.16.98-1.36,1.42-2.49,3.63-3.28,6.27-.18.6-.34,1.21-.48,1.82-.14.61-.26,1.23-.36,1.85-.52,3.1-.62,6.27-.6,9.41,0,.63.01,1.25.03,1.88l6.45,1Z"/>
    <path class="st5" d="M1386.56,523.1c6.68-2.88,1.49-17.18-6.05-15.65-.75.15-1.71.84-2.24,1.4-5.28,5.56,1.6,17.13,8.29,14.25Z"/>
    <path class="st5" d="M1408.44,533.52c-1.52.45-6.59,4.41-8.73,5.51-17.71,9.05-41.27,9.33-58.49-1.02-3.63-2.18-7.51-5.14-9.83-8.7,1.05-1.18,5.48-1.65,5.61-3.31-.05-.38-.14-.8-.41-1.08-.23-.25-1.11-.54-1.49-.65-5.2-1.54-12.03,2.06-13.8,7.19-.35,1.02-.99,3.46.15,4.13,2.4,1.42,3.52-3.25,5.75-3.43,0,0,.46,7.03,3.12,15.5,10.18-1.69,20.47,4.27,25.57,13.15.57,0,.17-.97.09-1.29-.5-1.86-1.71-3.49-2.36-5.2-.12-.3-.41-.31,0-.69,8.88-2.15,18.18,3.24,21.59,11.53,1.29,3.14,2.18,3.9-1.18,5.34-7.22,3.07-15.88,2.07-22.99-.88-5.86-2.43-11.24-6.23-15.96-10.71,5.5,9.83,14.76,18.45,30.29,17.76,30.62-1.35,39.65-31.02,41.46-38.64,1.68-1.69,3.65-3.95,2.99-4.6-.47-.02-.95-.06-1.41.08Z"/>
    <path class="st5" d="M1359.16,375.91c5.15-4.45,19.22-16.4,23.9-18.13.75-1-4.72-2.29-5.2-2.4-10.81-2.51-22.55-.84-32.85,2.92-1.44.52-2.88,1.13-4.25,1.81-.17-.18,1.26-2.17,1.49-2.51,2.97-4.31,6.75-7.31,9.73-11.16.2-.26.5-.33.38-.77-.34-.48-5.3.19-6.24.33-12.17,1.77-26.84,7.53-37.53,13.55-7.74,4.36-14.71,9.82-20.68,16.15h-73.71c.66,33.72.99,71.74.99,124.31s-.33,88.6-.99,123.65h129.93c87.94,0,119.68-25.13,119.68-133.9,0-89.09-32.58-111.55-104.65-113.85ZM1434.8,545.19c-15.13,43.08-75.26,59.03-113.35,37.71-22.06-12.35-32.57-40.25-8.28-56.39l4.53-2.09c-11.53-5.24-21.05-14.32-26.54-25.77-13.23-27.59-1.86-64.15,31.05-68.37,17.21-2.21,32.53,5.99,43.32,18.82.56,0,1.12-3.61,1.33-4.3,3.21-10.79,9.41-24.07,21.61-26.72,16.35-3.55,25.81,12.94,29.51,26.24,4.89,17.57,3.86,37.21-2.96,54.1,20.98,5.68,26.43,27.83,19.78,46.76Z"/>
  </g>
  <g>
    <path class="st4" d="M1690.23,492.97c-.73,1.24,2.77,7.62,3.64,8.98,5.94,9.24,15.05,11.12,19.63-.44,3.81-9.62,2.79-23.44-1.52-33.46-6.59,2.21-15.36-1.9-21.42-5.62-.34.69-.67,1.44-.98,2.26-1.95,5.16-2.25,10.64-2.09,16.11l17.56,2.34-14.83,9.83Z"/>
    <path class="st4" d="M1754.76,523.1c6.68-2.88,1.49-17.18-6.05-15.65-.75.15-1.71.84-2.24,1.4-5.28,5.56,1.6,17.13,8.29,14.25Z"/>
    <path class="st4" d="M1765.28,502.48c-6.14.9-4.17,16.39,2.2,16.14,2.93-.12,4.48-4.61,4.46-7.06-.02-3.33-2.41-9.7-6.66-9.07Z"/>
    <path class="st4" d="M1757.09,469.97l6.45,1-10.77,8.27c-.47.3-.4.53-.35,1,0,.09.02.2.04.31.08.45.24,1.05.45,1.71.37,1.16.87,2.51,1.31,3.61.25.63.49,1.17.66,1.55,1.75,3.84,3.84,6.27,5.92,7.22.17.08.35.15.52.21.35.12.69.19,1.04.22,1.2.11,2.38-.29,3.46-1.22,1.54-1.33,2.89-3.76,3.85-7.32,2.03-7.52,1.75-19.11-1.04-28.14-.12-.38-.24-.75-.36-1.11-.25-.73-.52-1.45-.8-2.14s-.59-1.36-.9-1.99c-.48-.96-1-1.85-1.56-2.67-2.07-3.04-4.08-4.38-5.92-4.47-.31-.01-.61,0-.9.06-.29.05-.58.14-.87.26s-.56.27-.83.44c-.4.27-.79.6-1.17.98-1.36,1.42-2.49,3.63-3.28,6.27-.18.6-.34,1.21-.48,1.82-.14.61-.26,1.23-.36,1.85-.52,3.1-.62,6.27-.6,9.41,0,.63.01,1.25.03,1.88l6.45,1Z"/>
    <path class="st4" d="M1776.64,533.52c-1.52.45-6.58,4.41-8.73,5.51-17.71,9.05-41.27,9.33-58.49-1.02-3.63-2.18-7.51-5.14-9.83-8.7,1.05-1.18,5.48-1.65,5.61-3.31-.05-.38-.14-.8-.41-1.08-.23-.25-1.11-.54-1.49-.65-5.2-1.54-12.03,2.06-13.8,7.19-.35,1.02-.99,3.46.15,4.13,2.4,1.42,3.52-3.25,5.75-3.43,0,0,.46,7.03,3.12,15.5,10.18-1.69,20.47,4.27,25.57,13.15.57,0,.17-.97.09-1.29-.5-1.86-1.71-3.49-2.36-5.2-.12-.3-.41-.31,0-.69,8.88-2.15,18.18,3.24,21.59,11.53,1.29,3.14,2.18,3.9-1.18,5.33-7.22,3.07-15.88,2.07-22.98-.88-5.86-2.43-11.24-6.23-15.96-10.71,5.5,9.83,14.76,18.45,30.29,17.76,30.62-1.35,39.65-31.02,41.46-38.64,1.68-1.69,3.65-3.95,2.99-4.6-.47-.02-.95-.06-1.41.08Z"/>
    <path class="st4" d="M1727.36,375.91c5.15-4.45,19.22-16.4,23.9-18.13.75-1-4.72-2.29-5.2-2.4-10.81-2.51-22.55-.84-32.85,2.92-1.44.52-2.88,1.13-4.25,1.81-.17-.18,1.25-2.17,1.49-2.51,2.97-4.31,6.75-7.31,9.73-11.16.2-.26.5-.33.38-.77-.34-.48-5.3.19-6.24.33-12.17,1.77-26.84,7.53-37.53,13.55-7.74,4.36-14.71,9.82-20.68,16.15h-73.71c.66,33.72.99,71.74.99,124.31s-.33,88.6-.99,123.65h129.93c87.94,0,119.68-25.13,119.68-133.9,0-89.09-32.58-111.55-104.65-113.85ZM1803.01,545.19c-15.13,43.08-75.26,59.03-113.35,37.71-22.06-12.35-32.57-40.25-8.28-56.39l4.53-2.09c-11.53-5.24-21.05-14.32-26.54-25.77-13.23-27.59-1.86-64.15,31.05-68.37,17.21-2.21,32.54,5.99,43.32,18.82.56,0,1.12-3.61,1.33-4.3,3.21-10.79,9.41-24.07,21.61-26.72,16.35-3.55,25.81,12.94,29.51,26.24,4.89,17.57,3.86,37.21-2.96,54.1,20.98,5.68,26.43,27.83,19.78,46.76Z"/>
  </g>
</svg>